<svg width="49" height="43" viewBox="0 0 49 43" fill="none" xmlns="http://www.w3.org/2000/svg">
<g id="Group 19">
<path id="Vector 18" d="M26 13L11.5 7.5L6 20M26 13L25 15L24.5 16.5L24 18.5V20L24.5 21.5L26.5 22.5L28.5 23L30 22.5L31 21.5L32.5 19L33.5 16M26 13V9.5V7.5V5.5L26.5 4L27.5 2.5L29 1.5L31 1H32.5L34.5 1.5L36.5 2.5L37.5 3.5L38 4.5L38.5 5.5V7L38 9L37.5 10.5L36.5 12L35.5 13L34 15L33.5 16M6 20L43 35M6 20V24.5L40 37.5L43 35M43 35L48 22L33.5 16" stroke="#FF7B00" stroke-width="2" stroke-linejoin="round"/>
<path id="Vector 19" d="M9 30H5H1V34V38V42H5H9H13H17H21H25H29H33H37" stroke="#FF7B00" stroke-width="2" stroke-linejoin="round"/>
</g>
</svg>
