<svg width="50" height="41" viewBox="0 0 50 41" fill="none" xmlns="http://www.w3.org/2000/svg">
<g id="Group 21">
<path id="Vector 27" d="M11 33.5806C10.4982 32.6026 9.86516 30.6549 7.98929 30.1577C5 29.3654 2.97147 30.3443 1.69313 32.1316C0.444882 33.6072 1.01176 36.6115 2.36797 38.0446C3.55058 39 4.74762 39.5 6 39.5" stroke="#FF7B00" stroke-width="2" stroke-linecap="round" stroke-linejoin="round"/>
<path id="Vector 26" d="M19 23.47L27 16.47L32.5 22.47L39 15.97M39 15.97L36.5 13.47H41L41.5 18.47L39.5 16.47L39 15.97ZM11 5.97003V33.47" stroke="#FF7B00" stroke-width="2" stroke-linecap="round" stroke-linejoin="round"/>
<path id="Vector 28" d="M1 6.49996C1 5.01091 1.5 2.55863 3.5 1.49991C4.99998 0.705883 7.69808 0.884783 9 1.99995C10.3019 3.11512 11 4.49995 11 5.99995" stroke="#FF7B00" stroke-width="2" stroke-linecap="round" stroke-linejoin="round"/>
<path id="Vector 24" d="M1 5.97003V33.9999" stroke="#FF7B00" stroke-width="2" stroke-linecap="round" stroke-linejoin="round"/>
<path id="Vector 25" d="M17.5 30.97H41.5" stroke="#FF7B00" stroke-width="2" stroke-linecap="round" stroke-linejoin="round"/>
<path id="Vector 23" d="M11 5.97003H49V39.47H6" stroke="#FF7B00" stroke-width="2" stroke-linecap="round" stroke-linejoin="round"/>
</g>
</svg>
