<svg width="52" height="43" viewBox="0 0 52 43" fill="none" xmlns="http://www.w3.org/2000/svg">
<g id="Group 4">
<circle id="Ellipse 22" cx="14.4868" cy="36.1974" r="5.25" stroke="#FF7B00" stroke-width="2" stroke-linejoin="round"/>
<circle id="Ellipse 23" cx="40.8026" cy="36.1974" r="5.25" stroke="#FF7B00" stroke-width="2" stroke-linejoin="round"/>
<path id="Vector 1" d="M8.89475 13.8289V1H21.7237V13.8289H14.1579M14.1579 26.3289H3.63159V25.6711V13.8289H14.1579M14.1579 26.3289V13.8289M14.1579 26.3289H31.2632V13.1711L32.9079 11.8553H43.1053L51 22.0526V33.8947L49.6842 35.5395H46.7237M14.1579 13.8289H26.9869" stroke="#FF7B00" stroke-width="2" stroke-linejoin="round"/>
<path id="Vector 2" d="M35.5395 35.5395H19.4211" stroke="#FF7B00" stroke-width="2" stroke-linejoin="round"/>
<path id="Vector 3" d="M9.22368 35.5394H2.97368L1 33.8947V26.3289H3.96053" stroke="#FF7B00" stroke-width="2" stroke-linejoin="round"/>
<path id="Vector 4" d="M26.6579 13.8289H27.6447V26.3289" stroke="#FF7B00" stroke-width="2" stroke-linejoin="round"/>
<path id="Vector 5" d="M46.3947 16.1316H39.4868L37.8421 17.4474V23.0395L39.4868 24.6842H51" stroke="#FF7B00" stroke-width="2" stroke-linejoin="round"/>
</g>
</svg>
